<svg version="1.1" id="Layer_1" xmlns="http://www.w3.org/2000/svg" xmlns:xlink="http://www.w3.org/1999/xlink" x="0px" y="0px"
	 width="100%" viewBox="0 0 500 500" enable-background="new 0 0 500 500" xml:space="preserve">
<path fill="#000000" opacity="1.000000" stroke="none" 
	d="
M323.000000,501.000000 
	C215.333359,501.000000 108.166718,501.000000 1.000057,501.000000 
	C1.000038,334.333405 1.000038,167.666794 1.000019,1.000147 
	C167.666565,1.000098 334.333130,1.000098 500.999756,1.000049 
	C500.999847,167.666519 500.999847,334.333038 500.999939,500.999786 
	C441.833344,501.000000 382.666656,501.000000 323.000000,501.000000 
M179.073730,312.536316 
	C179.384811,312.714874 179.695877,312.893433 180.004333,312.994171 
	C180.004333,312.994171 179.926498,312.996124 180.075989,313.531189 
	C180.385727,313.710724 180.695465,313.890228 181.002640,313.996338 
	C181.002640,313.996338 180.929214,313.998505 181.062622,314.538269 
	C181.373260,314.714111 181.683884,314.889923 181.993713,315.002411 
	C181.993713,315.002411 181.934097,315.023895 182.137787,315.621948 
	C182.687836,315.882965 183.237869,316.143951 183.486359,316.415558 
	C183.486359,316.415558 183.489380,316.717285 183.861816,317.205292 
	C184.580994,317.500916 185.300171,317.796539 186.287186,318.726746 
	C189.862915,320.763702 193.438644,322.800659 197.655991,325.161987 
	C201.101944,326.790894 204.547897,328.419800 208.361572,330.711212 
	C211.228027,331.479797 214.094482,332.248413 217.289047,333.723755 
	C218.464203,334.166931 219.606033,334.834564 220.820221,335.014893 
	C226.438858,335.849365 232.057831,336.856934 237.714050,337.219452 
	C245.111328,337.693451 252.543762,337.619110 260.814545,337.936157 
	C269.262329,336.295288 277.675079,334.421173 286.177643,333.145416 
	C288.993988,332.722809 292.021271,329.259277 295.142578,333.495209 
	C295.447327,333.675690 295.752106,333.856171 296.091095,334.667358 
	C296.707611,335.439667 297.324127,336.211975 297.941406,337.041656 
	C297.941406,337.041656 297.998627,337.046021 298.105927,337.543457 
	C298.391724,337.701172 298.677551,337.858887 298.987183,338.007019 
	C298.987183,338.007019 298.983276,338.031982 299.031677,338.654053 
	C299.351318,339.117340 299.670959,339.580597 300.246063,340.666290 
	C302.502594,343.160400 304.759125,345.654510 307.100128,348.595795 
	C307.278656,348.887390 307.538391,349.018738 307.889496,349.124054 
	C307.889496,349.124054 308.024078,349.129150 308.109680,349.564545 
	C308.274689,349.855377 308.523285,349.981995 309.149475,350.496277 
	C309.774078,351.037506 310.398651,351.578735 311.096985,352.572845 
	C311.271118,352.870331 311.530212,353.006836 311.886017,353.127594 
	C311.886017,353.127594 312.031647,353.131470 312.257629,353.758179 
	C326.875671,367.065704 348.949158,364.948029 357.231049,357.306763 
	C344.533203,355.101257 336.818604,346.062653 329.098816,336.905701 
	C329.098816,336.905701 328.974548,336.893585 328.868469,336.444611 
	C328.689941,336.153168 328.429901,336.014313 328.076660,335.914825 
	C328.076660,335.914825 327.962830,335.916016 327.831726,335.465851 
	C327.645081,335.183350 327.382782,335.030579 326.924896,334.487061 
	C326.868805,334.318054 326.812744,334.149048 326.759094,333.416779 
	C326.192993,332.948761 325.626923,332.480774 324.930786,331.304626 
	C322.299408,328.196259 319.668060,325.087921 316.955841,321.270996 
	C312.638916,315.843994 308.322021,310.416962 303.961731,304.265686 
	C300.331085,300.195312 296.700439,296.124939 292.795410,291.428955 
	C289.563782,288.947662 286.332123,286.466370 282.784546,283.315155 
	C270.448883,276.496887 257.978119,277.685028 244.329727,282.214539 
	C246.441452,283.517700 247.475113,284.633362 248.641464,284.795715 
	C254.930389,285.670898 259.349182,289.423157 263.391113,293.869507 
	C265.577087,296.274200 267.794434,298.650391 270.136200,301.526642 
	C270.420166,301.687866 270.704163,301.849121 271.043579,302.652344 
	C271.791199,303.592896 272.538818,304.533417 273.308929,305.636322 
	C273.308929,305.636322 273.460541,305.698639 273.709229,306.146698 
	C273.479218,306.752106 273.249207,307.357483 272.951904,307.963379 
	C272.951904,307.963379 272.947540,308.030518 272.209351,308.035767 
	C270.796204,308.691742 269.383057,309.347717 267.326782,310.055237 
	C266.900269,310.103882 266.473785,310.152527 265.172546,310.021515 
	C257.008118,310.356537 248.843750,310.692657 240.679245,311.025757 
	C239.129105,311.088989 237.578476,311.140228 235.554703,311.046661 
	C235.554703,311.046661 235.065399,310.961426 234.903381,310.477539 
	C234.607483,310.385345 234.311600,310.293152 233.329727,309.856750 
	C230.912292,309.226929 228.494858,308.597107 225.776672,307.297913 
	C221.794739,305.189087 217.812805,303.080292 213.899857,300.470306 
	C213.622498,300.305237 213.345154,300.140137 213.087982,299.887665 
	C213.087982,299.887665 213.016907,299.832947 212.745087,299.213013 
	C210.741653,297.552673 208.417618,296.154938 206.799240,294.179199 
	C203.032425,289.580597 199.605530,284.703552 195.966965,279.198700 
	C194.681061,276.455597 193.395172,273.712463 192.006393,270.159027 
	C191.599548,268.089355 191.192703,266.019714 190.929184,263.116638 
	C190.279419,257.802673 189.576263,252.494492 188.998077,247.172729 
	C188.592789,243.442413 187.969604,239.676727 188.130829,235.956619 
	C188.434067,228.959229 189.234024,221.983398 190.167313,214.310654 
	C191.055557,210.872879 191.943802,207.435120 193.140442,203.337524 
	C194.448044,200.569214 195.755646,197.800888 197.698853,194.778915 
	C198.829178,192.856873 199.959503,190.934845 201.019089,189.013626 
	C201.019089,189.013626 201.025452,189.084076 201.661758,188.862289 
	C202.137985,187.907639 202.614212,186.953003 202.993149,185.991394 
	C202.993149,185.991394 202.985184,186.088608 203.528885,185.934982 
	C203.712097,185.620544 203.895309,185.306107 203.992920,184.995026 
	C203.992920,184.995026 203.995514,185.080643 204.539215,184.938950 
	C204.717712,184.625046 204.896210,184.311142 205.007034,184.008591 
	C205.007034,184.008591 205.025894,184.074539 205.651825,183.859177 
	C207.125824,182.248489 208.599823,180.637817 210.009003,179.007599 
	C210.009003,179.007599 209.999863,179.074677 210.542694,178.936798 
	C210.720795,178.623749 210.898895,178.310699 210.997635,177.997284 
	C210.997635,177.997284 210.996933,178.076630 211.539368,177.930847 
	C211.720840,177.617462 211.902313,177.304077 211.996765,176.998276 
	C211.996765,176.998276 212.004028,177.085312 212.664017,176.980682 
	C213.469315,176.325394 214.274597,175.670090 215.006119,175.007050 
	C215.006119,175.007050 214.999252,175.080933 215.672180,175.000519 
	C216.476059,174.343826 217.279938,173.687134 218.015137,173.019638 
	C218.015137,173.019638 218.015289,173.089142 218.773376,172.991653 
	C222.198166,171.346756 225.622940,169.701843 229.893845,168.002213 
	C240.598022,167.272400 251.302200,166.542587 262.818634,165.967102 
	C267.196686,166.998215 271.574768,168.029343 276.000366,169.000839 
	C276.000366,169.000839 275.942780,169.048996 276.144653,169.601898 
	C276.765503,170.004837 277.386322,170.407776 278.442017,170.971832 
	C278.442017,170.971832 278.904449,171.006317 279.171631,171.588074 
	C279.778595,171.746109 280.385590,171.904144 280.995300,171.998276 
	C280.995300,171.998276 280.938934,172.029083 281.095032,172.607697 
	C281.455872,172.684845 281.816711,172.762009 282.507111,172.977020 
	C282.507111,172.977020 282.864349,172.982773 283.119476,173.605453 
	C284.072693,174.085297 285.025940,174.565125 286.001465,175.001053 
	C286.001465,175.001053 285.953125,175.007095 286.096039,175.520630 
	C286.391754,175.696533 286.687439,175.872437 286.989136,175.999557 
	C286.989136,175.999557 286.955566,176.047272 287.149994,176.702759 
	C289.421234,178.479904 291.692474,180.257034 294.003510,182.012924 
	C294.003510,182.012924 293.959534,182.013107 294.100220,182.526413 
	C294.397034,182.698608 294.693848,182.870804 295.002838,182.995514 
	C295.002838,182.995514 294.956573,183.011673 295.093201,183.527390 
	C295.391266,183.697083 295.689331,183.866791 295.992859,183.994736 
	C295.992859,183.994736 295.964081,184.026001 296.032104,184.720093 
	C296.693726,185.165726 297.355316,185.611343 298.035278,186.455200 
	C298.035278,186.455200 298.184113,186.825027 298.058197,187.406677 
	C298.363129,187.615295 298.668060,187.823929 298.995117,188.000000 
	C298.995117,188.000000 298.966339,188.032471 299.046509,188.732132 
	C300.373474,190.511108 301.700470,192.290070 303.091553,194.563644 
	C303.091553,194.563644 303.263763,195.031738 303.186920,195.522644 
	C303.374084,195.834198 303.649231,195.997009 304.009949,195.988708 
	C304.009949,195.988708 303.987671,195.985382 304.080444,196.609207 
	C304.396301,197.083084 304.712158,197.556961 305.041046,198.436966 
	C305.041046,198.436966 305.200653,198.810654 305.026825,199.520386 
	C305.707642,200.667328 306.388458,201.814270 307.072388,203.716492 
	C307.452698,205.143967 307.833008,206.571442 308.075500,208.782211 
	C309.390869,216.243179 311.075256,223.663498 311.903473,231.178146 
	C312.551819,237.060837 312.139343,243.060455 312.047882,249.860291 
	C312.013977,251.878235 311.980072,253.896164 311.292084,256.334045 
	C309.163239,266.738922 306.291473,276.861481 300.612518,286.009583 
	C300.018311,286.966766 299.875946,288.980469 300.481140,289.774719 
	C303.437683,293.655090 306.719055,297.287994 309.959747,301.734711 
	C312.471893,304.839661 315.200623,307.798615 317.424194,311.098022 
	C319.057068,313.520935 320.309753,313.251434 322.051819,311.507751 
	C332.626068,300.923828 340.068726,288.533508 343.919800,273.519989 
	C343.919800,273.519989 343.994720,273.046844 344.041748,273.042816 
	C344.041748,273.042816 344.044830,272.995697 344.703064,272.660614 
	C345.060577,270.771057 345.418060,268.881500 345.904419,266.481842 
	C345.860657,266.312042 345.816895,266.142212 346.168549,265.245544 
	C346.431763,264.496613 346.854767,263.763977 346.933228,262.996155 
	C347.648743,255.996994 348.717316,249.000351 348.864044,241.985840 
	C349.018677,234.594666 348.336395,227.180786 347.852539,219.787781 
	C347.788818,218.814316 346.735626,217.905640 346.019806,216.141037 
	C345.388123,213.416504 344.756439,210.691971 344.286407,207.231689 
	C344.512878,206.330765 345.169403,205.265610 344.897980,204.554794 
	C342.647095,198.659668 340.224701,192.830032 337.942902,186.452118 
	C337.646851,186.283661 337.350769,186.115219 337.009277,185.977173 
	C337.009277,185.977173 337.050354,185.956711 336.922302,185.447845 
	C336.628540,185.282730 336.334808,185.117615 336.008728,184.950928 
	C336.008728,184.950928 336.039703,184.930420 335.985779,184.206696 
	C334.005432,181.130569 332.025055,178.054428 329.986664,174.317734 
	C329.348022,173.529846 328.709351,172.741959 328.048218,171.956131 
	C328.048218,171.956131 328.051941,171.968170 327.924652,171.452301 
	C327.627136,171.285431 327.329590,171.118561 327.001434,171.000031 
	C327.001434,171.000031 327.048126,170.966827 326.923096,170.450546 
	C326.625610,170.283737 326.328125,170.116928 325.999176,169.997421 
	C325.999176,169.997421 326.049194,169.970566 325.912903,169.459549 
	C325.617645,169.289810 325.322418,169.120087 325.001251,168.999695 
	C325.001251,168.999695 325.049255,168.971405 324.915192,168.458252 
	C324.619019,168.288345 324.322815,168.118439 324.001312,167.999069 
	C324.001312,167.999069 324.051117,167.972382 323.916016,167.457870 
	C323.619110,167.286713 323.322205,167.115555 323.002899,166.998779 
	C323.002899,166.998779 323.055359,166.972168 322.924927,166.455139 
	C322.626709,166.287170 322.328461,166.119186 321.998566,165.996933 
	C321.998566,165.996933 322.048553,165.972672 321.902161,165.467972 
	C321.609833,165.295471 321.317535,165.122955 321.029419,164.982834 
	C321.029419,164.982834 321.038116,164.942230 320.833008,164.336258 
	C319.577576,163.209656 318.322174,162.083038 317.034332,160.990173 
	C317.034332,160.990173 317.053162,160.958664 316.918945,160.434525 
	C316.606628,160.346710 316.294281,160.258896 315.337891,159.859421 
	C313.169556,158.262817 311.001190,156.666229 308.844147,154.408676 
	C308.222443,154.239136 307.600708,154.069611 307.021088,154.002945 
	C307.021088,154.002945 307.123749,153.960434 307.006439,153.199326 
	C302.012787,150.765457 297.019165,148.331604 292.017487,145.967422 
	C292.017487,145.967422 292.087311,145.960495 291.774200,145.270142 
	C284.160858,143.568436 276.547485,141.866730 268.574524,140.015076 
	C268.574524,140.015076 268.184906,140.012939 267.716034,139.244858 
	C252.072525,139.532944 236.231293,136.785492 220.859726,141.128540 
	C213.310623,143.261459 206.203827,146.959793 198.969971,149.951035 
	C198.969971,149.951035 198.965179,149.878067 198.235397,149.971329 
	C196.127655,151.298203 194.019928,152.625076 191.980942,153.966370 
	C191.980942,153.966370 191.969055,153.897156 191.300629,153.970688 
	C190.502213,154.630814 189.703812,155.290955 188.975906,155.960846 
	C188.975906,155.960846 188.960999,155.891251 188.240479,155.966309 
	C184.453064,159.290649 180.665634,162.614975 176.968491,165.964798 
	C176.968491,165.964798 176.989853,165.873459 176.437531,166.025940 
	C176.261932,166.347626 176.086334,166.669312 175.975037,166.959961 
	C175.975037,166.959961 175.937683,166.899109 175.302521,167.134033 
	C174.167801,168.742096 173.033081,170.350159 171.968216,171.979721 
	C171.968216,171.979721 171.986786,171.909058 171.442535,172.041779 
	C171.266983,172.355225 171.091431,172.668671 170.982727,172.966278 
	C170.982727,172.966278 170.938339,172.913849 170.297134,173.109711 
	C169.832428,174.061157 169.367722,175.012619 168.972351,175.985138 
	C168.972351,175.985138 168.945984,175.917633 168.276199,176.152695 
	C167.330307,177.425690 166.245239,178.618774 165.461060,179.984619 
	C160.247421,189.065247 155.828812,198.467102 154.020142,209.735306 
	C153.637238,211.808029 153.254333,213.880768 152.139114,216.408844 
	C152.152267,229.940704 152.165405,243.472565 152.046402,257.794739 
	C152.706467,259.936279 153.366516,262.077820 154.014969,264.574982 
	C154.014969,264.574982 154.179840,264.890228 154.059341,265.753815 
	C155.708328,271.216644 157.357330,276.679443 159.032043,282.585968 
	C159.032043,282.585968 159.207840,282.994141 159.082764,283.708527 
	C160.041824,285.499695 161.000900,287.290894 161.971771,289.014130 
	C161.971771,289.014130 161.904236,289.027985 161.996017,289.763763 
	C164.323929,293.200409 166.651825,296.637054 168.985886,300.006744 
	C168.985886,300.006744 168.919189,300.015289 169.016998,300.735046 
	C170.998825,303.183929 172.980652,305.632812 174.984268,308.015808 
	C174.984268,308.015808 174.915985,308.003387 175.059036,308.543762 
	C175.371582,308.720703 175.684128,308.897644 175.996384,309.003357 
	C175.996384,309.003357 175.925156,309.004120 176.061142,309.545563 
	C176.373062,309.723419 176.684982,309.901245 177.000015,310.002502 
	C177.000015,310.002502 176.923431,309.999664 177.062714,310.540588 
	C177.374542,310.719055 177.686371,310.897552 177.994247,311.001984 
	C177.994247,311.001984 177.920212,311.006409 178.053146,311.550812 
	C178.367020,311.726318 178.680908,311.901794 178.999924,312.004120 
	C178.999924,312.004120 178.926727,311.999207 179.073730,312.536316 
z"/>
<path fill="#F8E747" opacity="1.000000" stroke="none" 
	d="
M152.871429,215.953491 
	C153.254333,213.880768 153.637238,211.808029 154.418488,209.234070 
	C155.384705,207.763336 156.042038,206.834671 156.506424,205.817902 
	C160.468262,197.143326 164.429581,188.468048 168.290558,179.748505 
	C168.799118,178.599991 168.741425,177.200745 168.945984,175.917633 
	C168.945984,175.917633 168.972351,175.985138 169.288605,175.925476 
	C170.049347,174.881821 170.493835,173.897827 170.938339,172.913849 
	C170.938339,172.913849 170.982727,172.966278 171.194000,172.870728 
	C171.599106,172.486465 171.792938,172.197769 171.986786,171.909058 
	C171.986786,171.909058 171.968216,171.979721 172.292999,171.943909 
	C173.724411,170.238449 174.831039,168.568771 175.937683,166.899109 
	C175.937683,166.899109 175.975037,166.959961 176.182724,166.854401 
	C176.590225,166.457031 176.790039,166.165237 176.989853,165.873459 
	C176.989853,165.873459 176.968491,165.964798 177.293579,165.975159 
	C181.399429,162.620773 185.180206,159.256012 188.960999,155.891251 
	C188.960999,155.891251 188.975906,155.960846 189.296661,155.974548 
	C190.401291,155.291229 191.185181,154.594193 191.969055,153.897156 
	C191.969055,153.897156 191.980942,153.966370 192.331787,153.988098 
	C194.776810,152.632584 196.871002,151.255325 198.965179,149.878067 
	C198.965179,149.878067 198.969971,149.951035 199.327332,149.969177 
	C202.634857,148.970078 205.535019,147.761581 208.545319,146.974457 
	C215.334213,145.199356 222.177582,143.632675 228.994919,142.358948 
	C228.840164,143.538757 228.943192,144.535034 228.500458,145.113876 
	C221.437408,154.348236 213.166077,162.335693 203.174469,168.328949 
	C198.575073,171.087784 195.967606,174.880997 194.758347,180.227814 
	C188.991516,188.632950 183.467316,196.813782 177.581970,205.011749 
	C173.827484,207.193680 169.572342,208.686798 167.240295,211.678787 
	C163.631485,216.308914 159.483871,219.416824 153.990494,220.623718 
	C153.613968,218.807083 153.242706,217.380295 152.871429,215.953491 
z"/>
<path fill="#F7C853" opacity="1.000000" stroke="none" 
	d="
M152.505280,216.181168 
	C153.242706,217.380295 153.613968,218.807083 153.984467,221.065948 
	C153.983704,229.355469 153.983704,236.812958 153.983704,244.730637 
	C159.840424,240.417236 164.881027,236.704880 169.915649,233.398468 
	C169.598831,239.538330 169.288025,245.272217 168.976227,251.468018 
	C168.909454,264.297302 170.466599,276.393127 175.140900,288.328949 
	C175.851974,290.779724 176.431854,292.890778 176.777054,295.256287 
	C175.292969,297.717987 174.043564,299.925293 172.531998,301.953918 
	C171.152954,301.188568 170.036072,300.601929 168.919189,300.015289 
	C168.919189,300.015289 168.985886,300.006744 168.968460,299.670532 
	C166.602097,295.898895 164.253174,292.463440 161.904236,289.027985 
	C161.904236,289.027985 161.971771,289.014130 161.983734,288.669617 
	C161.066406,286.548096 160.137131,284.771118 159.207855,282.994141 
	C159.207840,282.994141 159.032043,282.585968 159.028137,281.950745 
	C157.409424,275.840393 155.794632,270.365326 154.179840,264.890228 
	C154.179840,264.890228 154.014969,264.574982 154.038544,263.965820 
	C153.434250,261.239227 152.806412,259.121826 152.178558,257.004425 
	C152.165405,243.472565 152.152267,229.940704 152.505280,216.181168 
z"/>
<path fill="#EC631F" opacity="1.000000" stroke="none" 
	d="
M270.988129,302.010345 
	C270.704163,301.849121 270.420166,301.687866 270.076538,300.900452 
	C274.057556,294.906586 278.092773,289.534729 282.160950,284.187988 
	C282.308380,283.994232 282.779968,284.047119 283.100494,283.985077 
	C286.332123,286.466370 289.563782,288.947662 292.911926,292.114075 
	C293.686005,294.862457 294.343597,296.925751 294.706970,299.160583 
	C292.856567,300.130981 291.287781,300.906433 289.747345,301.734589 
	C287.908997,302.722992 285.976593,303.593536 284.299744,304.811066 
	C282.127991,306.387939 280.329987,308.508972 278.084564,309.948975 
	C273.107483,313.140778 267.601105,315.612732 265.638062,322.002747 
	C265.281433,323.163544 263.740753,324.264099 262.492554,324.794952 
	C257.067017,327.102325 253.945892,331.085754 252.570160,336.893372 
	C249.396988,336.921814 246.675842,336.917511 243.715515,336.706787 
	C242.653412,336.340393 241.830490,336.180359 240.628479,336.012665 
	C239.491470,335.982239 238.733551,335.959503 237.999054,335.575806 
	C241.684570,330.805695 245.346634,326.396606 249.308533,321.919464 
	C250.068253,321.236938 250.528137,320.622498 251.296631,319.825165 
	C252.397293,317.438324 253.189346,315.234406 254.398560,313.017883 
	C257.874115,312.658844 260.932526,312.312378 264.181641,311.863525 
	C264.611877,311.597382 264.819122,311.399811 265.196899,311.038879 
	C265.658508,310.712616 265.874390,310.476562 266.047272,310.201172 
	C266.473785,310.152527 266.900269,310.103882 268.002319,310.019104 
	C270.101074,309.332184 271.524292,308.681366 272.947540,308.030518 
	C272.947540,308.030518 272.951904,307.963379 273.335999,307.958679 
	C274.326904,307.374329 274.933685,306.794647 275.540497,306.215027 
	C274.847168,306.042908 274.153870,305.870789 273.460541,305.698669 
	C273.460541,305.698639 273.308929,305.636322 273.444397,305.211731 
	C272.715973,303.861572 271.852051,302.935944 270.988129,302.010345 
z"/>
<path fill="#F1A928" opacity="1.000000" stroke="none" 
	d="
M175.009689,287.989258 
	C170.466599,276.393127 168.909454,264.297302 169.237549,251.230682 
	C172.037628,241.900085 178.448380,236.916290 186.001083,233.474762 
	C186.713379,242.466751 187.315414,251.005417 188.242310,259.508698 
	C188.411743,261.063080 189.904160,262.473297 190.785858,263.950043 
	C191.192703,266.019714 191.599548,268.089355 191.654297,270.571594 
	C189.738113,271.611115 187.654480,271.802460 186.700089,272.940643 
	C182.621597,277.804504 178.876434,282.947845 175.009689,287.989258 
z"/>
<path fill="#F0C230" opacity="1.000000" stroke="none" 
	d="
M177.943115,204.994614 
	C183.467316,196.813782 188.991516,188.632950 195.049118,180.066193 
	C199.178818,176.511520 202.510788,172.960892 206.425095,170.251602 
	C215.238083,164.151718 224.089508,157.966980 234.921417,156.265671 
	C233.808624,157.805984 232.820496,159.079407 231.665970,160.177933 
	C228.141876,163.531021 224.553711,166.816727 220.721832,170.294678 
	C219.640549,171.336838 218.827927,172.212997 218.015289,173.089142 
	C218.015289,173.089142 218.015137,173.019638 217.701538,173.005341 
	C216.591721,173.687668 215.795486,174.384308 214.999252,175.080933 
	C214.999252,175.080933 215.006119,175.007050 214.694977,175.016144 
	C213.590561,175.711929 212.797302,176.398621 212.004028,177.085312 
	C212.004028,177.085312 211.996765,176.998276 211.793793,177.102570 
	C211.392868,177.496796 211.194901,177.786713 210.996933,178.076630 
	C210.996933,178.076630 210.997635,177.997284 210.786789,178.095612 
	C210.383911,178.487534 210.191879,178.781097 209.999847,179.074677 
	C209.999863,179.074677 210.009003,179.007599 209.673294,179.002625 
	C207.900360,180.689941 206.463120,182.382248 205.025894,184.074539 
	C205.025894,184.074539 205.007034,184.008591 204.793060,184.105835 
	C204.384552,184.495590 204.190033,184.788116 203.995514,185.080643 
	C203.995514,185.080643 203.992920,184.995026 203.795502,185.110733 
	C203.393768,185.513840 203.189484,185.801224 202.985199,186.088608 
	C202.985184,186.088608 202.993149,185.991394 202.716217,186.097946 
	C201.968002,187.164352 201.496735,188.124222 201.025452,189.084076 
	C201.025452,189.084076 201.019089,189.013626 200.709717,189.075897 
	C199.287979,191.102982 198.175613,193.067780 197.063263,195.032578 
	C195.755646,197.800888 194.448044,200.569214 192.647415,203.748291 
	C190.459976,206.648132 188.765579,209.137222 187.100647,211.583023 
	C183.116104,210.423676 180.167068,211.300919 177.959274,214.897156 
	C176.211166,217.744598 174.000427,220.308014 171.997070,222.597061 
	C173.980377,216.462585 175.961746,210.728607 177.943115,204.994614 
z"/>
<path fill="#EC6A28" opacity="1.000000" stroke="none" 
	d="
M345.773132,265.972351 
	C345.816895,266.142212 345.860657,266.312042 345.508118,266.879822 
	C344.756165,269.183777 344.400513,271.089722 344.044830,272.995697 
	C344.044830,272.995697 344.041748,273.042816 343.886627,273.117096 
	C343.509796,273.451263 343.521301,273.712036 343.766022,273.973694 
	C340.068726,288.533508 332.626068,300.923828 322.051819,311.507751 
	C320.309753,313.251434 319.057068,313.520935 317.424194,311.098022 
	C315.200623,307.798615 312.471893,304.839661 310.222351,301.204468 
	C314.998627,293.112305 319.512329,285.550323 324.362427,278.050781 
	C327.580566,280.224487 330.461090,279.812195 332.550232,277.252289 
	C335.848602,273.210571 342.018616,271.817139 343.126404,265.749481 
	C343.191559,265.392487 344.252747,265.217377 344.976379,265.150940 
	C345.289764,265.592224 345.513367,265.801575 345.773132,265.972351 
z"/>
<path fill="#F19C24" opacity="1.000000" stroke="none" 
	d="
M282.864349,172.982773 
	C282.864349,172.982773 282.507111,172.977020 282.176605,172.714508 
	C281.543701,172.311035 281.241333,172.170059 280.938934,172.029083 
	C280.938934,172.029083 280.995300,171.998276 280.810242,171.784164 
	C280.051605,171.382141 279.478027,171.194229 278.904449,171.006317 
	C278.904449,171.006317 278.442017,170.971832 278.138855,170.605377 
	C277.204712,169.842300 276.573730,169.445648 275.942780,169.048996 
	C275.942780,169.048996 276.000366,169.000839 275.908630,168.709534 
	C275.029541,167.381531 274.242188,166.344818 272.929596,164.616486 
	C275.696198,164.616486 277.530426,164.616486 278.115967,164.616486 
	C280.598480,161.519043 282.286896,159.212189 284.186554,157.094849 
	C286.365051,154.666702 288.730927,152.406662 291.428772,150.054443 
	C292.942688,149.964996 294.043213,149.894669 295.494629,149.886200 
	C298.552856,151.325470 301.260223,152.702896 304.028320,154.415039 
	C306.064087,157.485016 308.039032,160.220306 309.821594,163.200195 
	C309.407288,165.184067 309.185425,166.923340 308.933929,168.895065 
	C307.112762,170.031403 304.883606,171.332016 302.750732,172.774918 
	C299.750885,174.804337 296.822510,176.939346 293.578613,178.851883 
	C291.180969,177.798798 289.068268,176.923035 286.955566,176.047272 
	C286.955566,176.047272 286.989136,175.999557 286.863495,175.806061 
	C286.529510,175.341766 286.267914,175.139938 285.953125,175.007095 
	C285.953125,175.007095 286.001465,175.001053 285.911896,174.684021 
	C284.836334,173.905579 283.850342,173.444168 282.864349,172.982773 
z"/>
<path fill="#E95D20" opacity="1.000000" stroke="none" 
	d="
M324.026031,277.988373 
	C319.512329,285.550323 314.998627,293.112305 310.185242,300.841309 
	C306.719055,297.287994 303.437683,293.655090 300.481140,289.774719 
	C299.875946,288.980469 300.018311,286.966766 300.612518,286.009583 
	C306.291473,276.861481 309.163239,266.738922 311.633301,256.569153 
	C311.794891,259.275177 311.332031,261.770355 311.541046,264.207947 
	C311.667725,265.684998 312.514130,267.437622 313.617035,268.406342 
	C314.925629,269.555756 316.857208,269.995911 318.478424,270.725250 
	C319.912323,263.406799 320.763000,262.814697 327.012360,265.436188 
	C326.015533,269.897827 325.020782,273.943085 324.026031,277.988373 
z"/>
<path fill="#E74B20" opacity="1.000000" stroke="none" 
	d="
M326.756714,333.980042 
	C326.812744,334.149048 326.868805,334.318054 327.096069,334.937256 
	C327.452332,335.625122 327.684204,335.801331 327.962830,335.916016 
	C327.962830,335.916016 328.076660,335.914825 328.188232,336.154175 
	C328.479706,336.620911 328.704620,336.787598 328.974548,336.893585 
	C328.974548,336.893585 329.098816,336.905701 329.075317,337.348328 
	C329.850159,339.828125 330.648468,341.865295 331.460724,343.938110 
	C325.751282,348.476440 320.918518,355.072937 312.031647,353.131470 
	C312.031647,353.131470 311.886017,353.127594 311.781311,352.872009 
	C311.509552,352.384125 311.291779,352.218628 311.023224,352.119965 
	C310.398651,351.578735 309.774078,351.037506 308.910034,350.045044 
	C308.497742,349.379639 308.282257,349.224762 308.024078,349.129150 
	C308.024078,349.129150 307.889496,349.124054 307.782867,348.875977 
	C307.507141,348.397675 307.286957,348.237946 307.015656,348.148621 
	C304.759125,345.654510 302.502594,343.160400 300.088013,340.061523 
	C299.614410,338.981812 299.298859,338.506897 298.983276,338.031982 
	C298.983276,338.031982 298.987183,338.007019 298.995728,337.768158 
	C299.004303,337.529297 299.018005,337.040009 299.386749,337.014526 
	C307.326080,334.070068 314.174927,330.320068 317.036682,321.979553 
	C319.668060,325.087921 322.299408,328.196259 324.896118,331.895264 
	C325.493225,332.983978 326.124969,333.481995 326.756714,333.980042 
z"/>
<path fill="#F19028" opacity="1.000000" stroke="none" 
	d="
M293.863586,179.029205 
	C296.822510,176.939346 299.750885,174.804337 302.750732,172.774918 
	C304.883606,171.332016 307.112762,170.031403 308.933929,168.895065 
	C309.185425,166.923340 309.407288,165.184067 310.111267,163.380981 
	C314.732788,170.206421 318.872131,177.095673 322.743469,184.217407 
	C314.764648,186.671890 309.729767,191.752792 306.547424,199.070312 
	C305.916992,198.961456 305.558807,198.886063 305.200653,198.810654 
	C305.200653,198.810654 305.041046,198.436966 304.977539,197.943466 
	C304.605255,196.961777 304.296448,196.473572 303.987671,195.985382 
	C303.987671,195.985382 304.009949,195.988708 303.896973,195.828369 
	C303.635468,195.435593 303.462067,195.223495 303.263763,195.031738 
	C303.263763,195.031738 303.091553,194.563644 303.053833,193.934204 
	C301.666199,191.547348 300.316284,189.789902 298.966339,188.032471 
	C298.966339,188.032471 298.995117,188.000000 298.916656,187.778519 
	C298.691345,187.249420 298.473328,187.005417 298.184113,186.825027 
	C298.184113,186.825027 298.035278,186.455200 297.935852,185.952209 
	C297.212311,184.974823 296.588196,184.500412 295.964081,184.026001 
	C295.964081,184.026001 295.992859,183.994736 295.868958,183.798309 
	C295.537476,183.331390 295.274628,183.134659 294.956573,183.011673 
	C294.956573,183.011673 295.002838,182.995514 294.868286,182.807281 
	C294.525208,182.353745 294.267151,182.151764 293.959534,182.013107 
	C293.959534,182.013107 294.003510,182.012924 294.001648,181.647598 
	C293.954376,180.531250 293.908966,179.780228 293.863586,179.029205 
z"/>
<path fill="#F19028" opacity="1.000000" stroke="none" 
	d="
M196.040894,279.939331 
	C199.605530,284.703552 203.032425,289.580597 206.799240,294.179199 
	C208.417618,296.154938 210.741653,297.552673 212.575653,299.541809 
	C209.494919,301.495819 205.628082,302.438232 203.875122,304.891235 
	C200.437149,309.702209 196.174271,312.890198 190.623322,314.940491 
	C187.550613,310.848206 184.773544,306.923553 182.248932,302.764648 
	C184.952271,299.574585 186.857880,295.687653 189.971848,293.864227 
	C195.780273,290.462982 197.129974,285.934570 196.040894,279.939331 
z"/>
<path fill="#E03E21" opacity="1.000000" stroke="none" 
	d="
M312.144653,353.444824 
	C320.918518,355.072937 325.751282,348.476440 331.460724,343.938110 
	C330.648468,341.865295 329.850159,339.828125 329.075531,337.410767 
	C336.818604,346.062653 344.533203,355.101257 357.231049,357.306763 
	C348.949158,364.948029 326.875671,367.065704 312.144653,353.444824 
z"/>
<path fill="#E95D20" opacity="1.000000" stroke="none" 
	d="
M316.996277,321.625275 
	C314.174927,330.320068 307.326080,334.070068 299.131409,336.999359 
	C298.337769,337.021759 298.168213,337.033905 297.998627,337.046021 
	C297.998627,337.046021 297.941406,337.041656 297.943848,336.678284 
	C297.316467,335.555481 296.686676,334.796082 296.056854,334.036682 
	C295.752106,333.856171 295.447327,333.675690 295.049072,332.877625 
	C293.740051,330.668457 292.524536,329.076935 291.398773,327.602905 
	C290.865814,325.341949 299.818237,322.761078 291.171021,320.712616 
	C292.790558,319.132721 294.413025,317.989075 295.666840,316.528870 
	C298.709961,312.984894 304.223785,311.175842 303.865540,305.118164 
	C303.912354,305.075714 304.005096,304.989960 304.005096,304.989960 
	C308.322021,310.416962 312.638916,315.843994 316.996277,321.625275 
z"/>
<path fill="#F08626" opacity="1.000000" stroke="none" 
	d="
M190.918945,315.108154 
	C196.174271,312.890198 200.437149,309.702209 203.875122,304.891235 
	C205.628082,302.438232 209.494919,301.495819 212.711578,299.851746 
	C213.016907,299.832947 213.087982,299.887665 213.167572,300.124695 
	C213.391525,300.613068 213.586090,300.816315 213.830856,300.971497 
	C217.812805,303.080292 221.794739,305.189087 225.640472,307.864746 
	C225.134369,308.763824 224.799332,309.332581 224.389343,309.393036 
	C217.484680,310.411407 213.722580,315.055817 210.765701,320.816803 
	C210.257370,321.807159 208.895752,322.539459 207.768402,322.996643 
	C205.004532,324.117432 204.127151,325.264496 206.984253,327.406403 
	C207.622421,327.884827 207.672836,329.147247 207.993851,330.048737 
	C204.547897,328.419800 201.101944,326.790894 197.320755,324.647583 
	C194.963318,321.124817 192.941132,318.116486 190.918945,315.108154 
z"/>
<path fill="#F2B933" opacity="1.000000" stroke="none" 
	d="
M171.995117,222.997559 
	C174.000427,220.308014 176.211166,217.744598 177.959274,214.897156 
	C180.167068,211.300919 183.116104,210.423676 187.100647,211.583023 
	C188.765579,209.137222 190.459976,206.648132 192.493225,204.078186 
	C191.943802,207.435120 191.055557,210.872879 189.648361,214.806427 
	C188.752762,216.837814 188.275848,218.356842 188.018646,219.912216 
	C187.298035,224.269882 186.668121,228.642548 186.002441,233.009293 
	C178.448380,236.916290 172.037628,241.900085 169.238525,250.768799 
	C169.288025,245.272217 169.598831,239.538330 169.938004,232.990356 
	C170.642609,229.116714 171.318863,226.057144 171.995117,222.997559 
z"/>
<path fill="#F2B933" opacity="1.000000" stroke="none" 
	d="
M220.990463,170.128632 
	C224.553711,166.816727 228.141876,163.531021 231.665970,160.177933 
	C232.820496,159.079407 233.808624,157.805984 235.119583,155.989075 
	C237.248611,154.562057 239.130905,153.758514 241.296448,152.921936 
	C242.054138,152.598312 242.528595,152.307678 243.255432,152.011795 
	C243.675598,151.993607 243.843384,151.980667 244.414703,151.953812 
	C252.209824,150.926453 259.601410,149.913025 266.906677,149.235870 
	C262.830231,153.828415 258.840088,158.084656 254.661667,162.541718 
	C257.845581,163.959717 259.925995,164.886246 262.006378,165.812775 
	C251.302200,166.542587 240.598022,167.272400 229.083649,168.016815 
	C225.845779,168.730499 223.418121,169.429565 220.990463,170.128632 
z"/>
<path fill="#F07B23" opacity="1.000000" stroke="none" 
	d="
M208.177704,330.379974 
	C207.672836,329.147247 207.622421,327.884827 206.984253,327.406403 
	C204.127151,325.264496 205.004532,324.117432 207.768402,322.996643 
	C208.895752,322.539459 210.257370,321.807159 210.765701,320.816803 
	C213.722580,315.055817 217.484680,310.411407 224.389343,309.393036 
	C224.799332,309.332581 225.134369,308.763824 225.790848,308.199463 
	C228.494858,308.597107 230.912292,309.226929 233.817444,310.194702 
	C234.523224,310.738281 234.776642,310.881195 235.065399,310.961426 
	C235.065399,310.961426 235.554703,311.046661 236.044098,311.312653 
	C237.356857,311.737976 238.180206,311.897308 238.931732,312.401062 
	C236.150146,314.496582 233.440384,316.247711 230.598389,318.084259 
	C231.588547,318.762909 232.439346,319.346008 233.449326,320.038208 
	C222.586945,324.450897 221.501068,329.165833 223.606659,333.895020 
	C221.133713,333.562866 219.047333,333.289948 216.960938,333.016998 
	C214.094482,332.248413 211.228027,331.479797 208.177704,330.379974 
z"/>
<path fill="#F1A928" opacity="1.000000" stroke="none" 
	d="
M262.412506,165.889923 
	C259.925995,164.886246 257.845581,163.959717 254.661667,162.541718 
	C258.840088,158.084656 262.830231,153.828415 267.376556,149.245758 
	C275.626953,149.304092 283.321167,149.688843 291.015381,150.073578 
	C288.730927,152.406662 286.365051,154.666702 284.186554,157.094849 
	C282.286896,159.212189 280.598480,161.519043 278.115967,164.616486 
	C277.530426,164.616486 275.696198,164.616486 272.929596,164.616486 
	C274.242188,166.344818 275.029541,167.381531 275.884827,168.739349 
	C271.574768,168.029343 267.196686,166.998215 262.412506,165.889923 
z"/>
<path fill="#E77728" opacity="1.000000" stroke="none" 
	d="
M282.942505,283.650116 
	C282.779968,284.047119 282.308380,283.994232 282.160950,284.187988 
	C278.092773,289.534729 274.057556,294.906586 270.007263,300.656860 
	C267.794434,298.650391 265.577087,296.274200 263.391113,293.869507 
	C259.349182,289.423157 254.930389,285.670898 248.641464,284.795715 
	C247.475113,284.633362 246.441452,283.517700 244.329727,282.214539 
	C257.978119,277.685028 270.448883,276.496887 282.942505,283.650116 
z"/>
<path fill="#F19C24" opacity="1.000000" stroke="none" 
	d="
M196.003937,279.569031 
	C197.129974,285.934570 195.780273,290.462982 189.971848,293.864227 
	C186.857880,295.687653 184.952271,299.574585 181.961502,302.578491 
	C179.951660,300.085022 178.481689,297.543457 177.011734,295.001862 
	C176.431854,292.890778 175.851974,290.779724 175.140900,288.328949 
	C178.876434,282.947845 182.621597,277.804504 186.700089,272.940643 
	C187.654480,271.802460 189.738113,271.611115 191.705750,270.976746 
	C193.395172,273.712463 194.681061,276.455597 196.003937,279.569031 
z"/>
<path fill="#EC631F" opacity="1.000000" stroke="none" 
	d="
M327.014465,265.019836 
	C320.763000,262.814697 319.912323,263.406799 318.478424,270.725250 
	C316.857208,269.995911 314.925629,269.555756 313.617035,268.406342 
	C312.514130,267.437622 311.667725,265.684998 311.541046,264.207947 
	C311.332031,261.770355 311.794891,259.275177 311.960358,256.359192 
	C311.980072,253.896164 312.013977,251.878235 312.423950,249.429474 
	C313.201263,248.992386 313.602448,248.986115 314.383484,248.970261 
	C319.113159,246.680878 323.463074,244.401093 328.362823,241.833130 
	C328.931488,242.177277 330.449219,243.095764 331.898438,244.413940 
	C331.545532,247.871704 331.261108,250.929749 330.744446,254.274261 
	C329.346283,258.047119 328.180389,261.533478 327.014465,265.019836 
z"/>
<path fill="#F3A23E" opacity="1.000000" stroke="none" 
	d="
M337.854187,186.980591 
	C340.224701,192.830032 342.647095,198.659668 344.897980,204.554794 
	C345.169403,205.265610 344.512878,206.330765 343.863037,207.515381 
	C342.483246,206.580368 341.526886,205.361664 340.123993,203.574005 
	C337.881409,208.047867 335.059296,210.945465 330.034485,208.634933 
	C330.021027,207.871933 330.013336,207.435562 329.947876,206.615952 
	C327.907501,198.837967 325.924896,191.443222 324.389404,184.035904 
	C328.570923,184.325699 332.305298,184.628067 336.039703,184.930420 
	C336.039703,184.930420 336.008728,184.950928 336.152405,185.157166 
	C336.502106,185.618896 336.753510,185.816681 337.050354,185.956711 
	C337.050354,185.956711 337.009277,185.977173 337.122131,186.166138 
	C337.379089,186.625290 337.585480,186.833786 337.854187,186.980591 
z"/>
<path fill="#F9DC4D" opacity="1.000000" stroke="none" 
	d="
M291.428772,150.054443 
	C283.321167,149.688843 275.626953,149.304092 267.462860,148.909470 
	C259.601410,149.913025 252.209824,150.926453 244.507324,151.630585 
	C244.953583,150.774384 245.800674,150.317322 246.452484,149.665131 
	C249.366989,146.748856 254.241638,145.341446 254.469208,139.954865 
	C259.351257,139.963638 263.768097,139.988281 268.184906,140.012939 
	C268.184906,140.012939 268.574524,140.015076 269.064087,140.298615 
	C277.064850,142.374939 284.576080,144.167725 292.087311,145.960495 
	C292.087311,145.960495 292.017487,145.967422 292.083221,146.257874 
	C293.147217,147.640335 294.145508,148.732346 295.143768,149.824356 
	C294.043213,149.894669 292.942688,149.964996 291.428772,150.054443 
z"/>
<path fill="#F4B046" opacity="1.000000" stroke="none" 
	d="
M336.012756,184.568558 
	C332.305298,184.628067 328.570923,184.325699 324.156982,184.020111 
	C323.477448,184.016891 323.011475,183.984924 323.011475,183.984924 
	C318.872131,177.095673 314.732788,170.206421 310.303711,163.136383 
	C308.039032,160.220306 306.064087,157.485016 304.421906,154.374939 
	C305.544373,153.986923 306.334076,153.973679 307.123749,153.960434 
	C307.123749,153.960434 307.021088,154.002945 307.169556,154.179993 
	C307.822998,154.594559 308.327911,154.832092 308.832855,155.069626 
	C311.001190,156.666229 313.169556,158.262817 315.804688,160.188248 
	C316.504913,160.712326 316.765442,160.859528 317.053162,160.958664 
	C317.053162,160.958664 317.034332,160.990173 317.045380,161.346588 
	C318.383667,162.782745 319.710876,163.862488 321.038116,164.942230 
	C321.038116,164.942230 321.029419,164.982834 321.166046,165.167343 
	C321.513611,165.604080 321.762238,165.811020 322.048553,165.972672 
	C322.048553,165.972672 321.998566,165.996933 322.146851,166.180283 
	C322.505280,166.620544 322.758667,166.823395 323.055359,166.972168 
	C323.055359,166.972168 323.002899,166.998779 323.148865,167.177063 
	C323.504120,167.613480 323.756226,167.819153 324.051117,167.972382 
	C324.051117,167.972382 324.001312,167.999069 324.148071,168.178589 
	C324.503601,168.615021 324.755096,168.819458 325.049255,168.971405 
	C325.049255,168.971405 325.001251,168.999695 325.148743,169.178894 
	C325.505371,169.613647 325.756378,169.817810 326.049194,169.970566 
	C326.049194,169.970566 325.999176,169.997421 326.144897,170.180267 
	C326.498199,170.620712 326.750702,170.821945 327.048126,170.966827 
	C327.048126,170.966827 327.001434,171.000031 327.147583,171.182175 
	C327.500336,171.623489 327.753082,171.824768 328.051941,171.968170 
	C328.051941,171.968170 328.048218,171.956131 328.046631,172.300339 
	C328.711609,173.422470 329.378143,174.200394 330.044708,174.978302 
	C332.025055,178.054428 334.005432,181.130569 336.012756,184.568558 
z"/>
<path fill="#EC6A28" opacity="1.000000" stroke="none" 
	d="
M291.006287,321.004883 
	C299.818237,322.761078 290.865814,325.341949 291.398773,327.602905 
	C292.524536,329.076935 293.740051,330.668457 294.966583,332.617432 
	C292.021271,329.259277 288.993988,332.722809 286.177643,333.145416 
	C277.675079,334.421173 269.262329,336.295288 260.245239,337.675629 
	C259.462067,337.188354 259.220184,336.996918 259.090057,336.518646 
	C259.912842,335.788391 260.556976,335.120148 261.284851,335.011261 
	C272.603607,333.317688 281.484436,326.484863 291.006287,321.004883 
z"/>
<path fill="#F19028" opacity="1.000000" stroke="none" 
	d="
M330.040222,208.961548 
	C335.059296,210.945465 337.881409,208.047867 340.123993,203.574005 
	C341.526886,205.361664 342.483246,206.580368 343.782196,207.883240 
	C344.756439,210.691971 345.388123,213.416504 345.836365,216.785248 
	C345.452240,218.288147 345.251587,219.146820 344.657898,220.007263 
	C342.604584,220.613586 340.199585,220.732864 339.428192,221.916672 
	C337.382263,225.056427 334.805603,224.510529 332.007812,223.556046 
	C331.349884,218.400467 330.695038,213.681015 330.040222,208.961548 
z"/>
<path fill="#F4B046" opacity="1.000000" stroke="none" 
	d="
M176.777054,295.256287 
	C178.481689,297.543457 179.951660,300.085022 181.709045,302.812775 
	C184.773544,306.923553 187.550613,310.848206 190.623322,314.940491 
	C192.941132,318.116486 194.963318,321.124817 196.999939,324.485382 
	C193.438644,322.800659 189.862915,320.763702 186.043350,318.081848 
	C185.029465,317.197083 184.259430,316.957184 183.489380,316.717285 
	C183.489380,316.717285 183.486359,316.415558 183.506104,316.126770 
	C182.995255,315.566650 182.464676,315.295258 181.934113,315.023865 
	C181.934097,315.023895 181.993713,315.002411 181.887863,314.793396 
	C181.497742,314.389099 181.213486,314.193787 180.929214,313.998505 
	C180.929214,313.998505 181.002640,313.996338 180.884476,313.799438 
	C180.486374,313.400391 180.206436,313.198242 179.926498,312.996124 
	C179.926498,312.996124 180.004333,312.994171 179.880325,312.804077 
	C179.479782,312.409027 179.203262,312.204132 178.926727,311.999207 
	C178.926727,311.999207 178.999924,312.004120 178.894867,311.794647 
	C178.499954,311.392242 178.210098,311.199310 177.920227,311.006409 
	C177.920212,311.006409 177.994247,311.001984 177.880890,310.802551 
	C177.486160,310.401947 177.204803,310.200806 176.923431,309.999664 
	C176.923431,309.999664 177.000015,310.002502 176.895035,309.795563 
	C176.501755,309.393799 176.213455,309.198944 175.925156,309.004120 
	C175.925156,309.004120 175.996384,309.003357 175.891586,308.794006 
	C175.496521,308.390930 175.206253,308.197174 174.915985,308.003387 
	C174.915985,308.003387 174.984268,308.015808 174.988708,307.686096 
	C174.260162,305.615112 173.527145,303.873871 172.794159,302.132599 
	C174.043564,299.925293 175.292969,297.717987 176.777054,295.256287 
z"/>
<path fill="#F5DE86" opacity="1.000000" stroke="none" 
	d="
M267.950470,139.628906 
	C263.768097,139.988281 259.351257,139.963638 254.000275,139.945114 
	C245.043655,140.627884 237.021210,141.304520 228.998779,141.981171 
	C222.177582,143.632675 215.334213,145.199356 208.545319,146.974457 
	C205.535019,147.761581 202.634857,148.970078 199.290787,149.968506 
	C206.203827,146.959793 213.310623,143.261459 220.859726,141.128540 
	C236.231293,136.785492 252.072525,139.532944 267.950470,139.628906 
z"/>
<path fill="#F4B046" opacity="1.000000" stroke="none" 
	d="
M186.001083,233.474762 
	C186.668121,228.642548 187.298035,224.269882 188.018646,219.912216 
	C188.275848,218.356842 188.752762,216.837814 189.478439,215.150391 
	C189.234024,221.983398 188.434067,228.959229 188.130829,235.956619 
	C187.969604,239.676727 188.592789,243.442413 188.998077,247.172729 
	C189.576263,252.494492 190.279419,257.802673 190.857529,263.533325 
	C189.904160,262.473297 188.411743,261.063080 188.242310,259.508698 
	C187.315414,251.005417 186.713379,242.466751 186.001083,233.474762 
z"/>
<path fill="#E77728" opacity="1.000000" stroke="none" 
	d="
M345.050903,220.005493 
	C345.251587,219.146820 345.452240,218.288147 345.896790,217.198212 
	C346.735626,217.905640 347.788818,218.814316 347.852539,219.787781 
	C348.336395,227.180786 349.018677,234.594666 348.864044,241.985840 
	C348.717316,249.000351 347.648743,255.996994 346.933228,262.996155 
	C346.854767,263.763977 346.431763,264.496613 345.970825,265.608948 
	C345.513367,265.801575 345.289764,265.592224 345.016235,264.712769 
	C345.281006,258.721558 345.631897,253.361801 345.992676,247.574860 
	C345.685364,238.100296 345.368134,229.052887 345.050903,220.005493 
z"/>
<path fill="#E77728" opacity="1.000000" stroke="none" 
	d="
M314.003662,248.979858 
	C313.602448,248.986115 313.201263,248.992386 312.499146,249.003387 
	C312.139343,243.060455 312.551819,237.060837 311.903473,231.178146 
	C311.075256,223.663498 309.390869,216.243179 308.314026,208.163864 
	C308.699768,207.005478 308.846985,206.465424 309.228760,206.225006 
	C310.644653,210.347809 311.825989,214.170975 313.005676,218.438690 
	C313.352966,224.588394 313.701904,230.293533 314.042419,236.461807 
	C314.023865,240.943237 314.013763,244.961548 314.003662,248.979858 
z"/>
<path fill="#F5DE86" opacity="1.000000" stroke="none" 
	d="
M168.611084,176.035156 
	C168.741425,177.200745 168.799118,178.599991 168.290558,179.748505 
	C164.429581,188.468048 160.468262,197.143326 156.506424,205.817902 
	C156.042038,206.834671 155.384705,207.763336 154.492401,208.835480 
	C155.828812,198.467102 160.247421,189.065247 165.461060,179.984619 
	C166.245239,178.618774 167.330307,177.425690 168.611084,176.035156 
z"/>
<path fill="#E77728" opacity="1.000000" stroke="none" 
	d="
M258.950348,336.840851 
	C259.220184,336.996918 259.462067,337.188354 259.818512,337.597870 
	C252.543762,337.619110 245.111328,337.693451 237.714050,337.219452 
	C232.057831,336.856934 226.438858,335.849365 220.820221,335.014893 
	C219.606033,334.834564 218.464203,334.166931 217.125000,333.370361 
	C219.047333,333.289948 221.133713,333.562866 223.856781,333.900970 
	C224.660141,333.966339 224.826828,333.966522 225.335678,334.027557 
	C226.797592,334.358002 227.917328,334.627625 229.361435,334.915649 
	C230.118652,334.949707 230.551529,334.965363 231.253906,335.213989 
	C232.692520,335.609985 233.861618,335.772980 235.399078,335.945557 
	C236.503510,335.949005 237.239563,335.942871 237.975616,335.936768 
	C238.733551,335.959503 239.491470,335.982239 240.864349,336.230103 
	C242.304428,336.607849 243.129562,336.760529 243.954697,336.913177 
	C246.675842,336.917511 249.396988,336.921814 252.992569,336.927429 
	C255.561447,336.899445 257.255890,336.870148 258.950348,336.840851 
z"/>
<path fill="#E77728" opacity="1.000000" stroke="none" 
	d="
M239.003571,312.056641 
	C238.180206,311.897308 237.356857,311.737976 236.280792,311.387817 
	C237.578476,311.140228 239.129105,311.088989 240.679245,311.025757 
	C248.843750,310.692657 257.008118,310.356537 265.609924,310.111328 
	C265.874390,310.476562 265.658508,310.712616 264.995972,311.122681 
	C264.342316,311.498718 264.141846,311.708649 263.990906,311.965912 
	C260.932526,312.312378 257.874115,312.658844 253.940292,313.011597 
	C248.377762,312.697418 243.690659,312.377014 239.003571,312.056641 
z"/>
<path fill="#F5DE86" opacity="1.000000" stroke="none" 
	d="
M291.930756,145.615326 
	C284.576080,144.167725 277.064850,142.374939 269.243896,140.373596 
	C276.547485,141.866730 284.160858,143.568436 291.930756,145.615326 
z"/>
<path fill="#F5DE86" opacity="1.000000" stroke="none" 
	d="
M307.065094,153.579880 
	C306.334076,153.973679 305.544373,153.986923 304.361145,154.040253 
	C301.260223,152.702896 298.552856,151.325470 295.494629,149.886200 
	C294.145508,148.732346 293.147217,147.640335 292.087219,146.223022 
	C297.019165,148.331604 302.012787,150.765457 307.065094,153.579880 
z"/>
<path fill="#E95D20" opacity="1.000000" stroke="none" 
	d="
M295.001221,298.989014 
	C294.343597,296.925751 293.686005,294.862457 293.049133,292.426880 
	C296.700439,296.124939 300.331085,300.195312 303.983398,304.627808 
	C304.005096,304.989960 303.912354,305.075714 303.541199,305.012939 
	C300.447113,302.963104 297.724152,300.976074 295.001221,298.989014 
z"/>
<path fill="#F5DE86" opacity="1.000000" stroke="none" 
	d="
M188.600739,155.928772 
	C185.180206,159.256012 181.399429,162.620773 177.248444,165.962433 
	C180.665634,162.614975 184.453064,159.290649 188.600739,155.928772 
z"/>
<path fill="#F5DE86" opacity="1.000000" stroke="none" 
	d="
M154.119598,265.322021 
	C155.794632,270.365326 157.409424,275.840393 159.015274,281.728882 
	C157.357330,276.679443 155.708328,271.216644 154.119598,265.322021 
z"/>
<path fill="#F5DE86" opacity="1.000000" stroke="none" 
	d="
M161.950134,289.395874 
	C164.253174,292.463440 166.602097,295.898895 168.965393,299.704041 
	C166.651825,296.637054 164.323929,293.200409 161.950134,289.395874 
z"/>
<path fill="#F5DE86" opacity="1.000000" stroke="none" 
	d="
M172.531982,301.953918 
	C173.527145,303.873871 174.260162,305.615112 174.977814,307.719055 
	C172.980652,305.632812 170.998825,303.183929 168.968094,300.375183 
	C170.036072,300.601929 171.152954,301.188568 172.531982,301.953918 
z"/>
<path fill="#F5DE86" opacity="1.000000" stroke="none" 
	d="
M220.721832,170.294662 
	C223.418121,169.429565 225.845779,168.730499 228.660583,168.044189 
	C225.622940,169.701843 222.198166,171.346756 218.394348,173.040405 
	C218.827927,172.212997 219.640549,171.336838 220.721832,170.294662 
z"/>
<path fill="#F4B046" opacity="1.000000" stroke="none" 
	d="
M293.578613,178.851898 
	C293.908966,179.780228 293.954376,180.531250 293.981750,181.658234 
	C291.692474,180.257034 289.421234,178.479904 287.052795,176.375015 
	C289.068268,176.923035 291.180969,177.798798 293.578613,178.851898 
z"/>
<path fill="#F5DE86" opacity="1.000000" stroke="none" 
	d="
M198.600281,149.924698 
	C196.871002,151.255325 194.776810,152.632584 192.297424,153.980896 
	C194.019928,152.625076 196.127655,151.298203 198.600281,149.924698 
z"/>
<path fill="#F4B046" opacity="1.000000" stroke="none" 
	d="
M299.006409,188.382294 
	C300.316284,189.789902 301.666199,191.547348 303.021790,193.686920 
	C301.700470,192.290070 300.373474,190.511108 299.006409,188.382294 
z"/>
<path fill="#F5DE86" opacity="1.000000" stroke="none" 
	d="
M205.338867,183.966858 
	C206.463120,182.382248 207.900360,180.689941 209.705704,179.012390 
	C208.599823,180.637817 207.125824,182.248489 205.338867,183.966858 
z"/>
<path fill="#F5DE86" opacity="1.000000" stroke="none" 
	d="
M197.381058,194.905746 
	C198.175613,193.067780 199.287979,191.102982 200.745087,189.075500 
	C199.959503,190.934845 198.829178,192.856873 197.381058,194.905746 
z"/>
<path fill="#F5DE86" opacity="1.000000" stroke="none" 
	d="
M175.620102,167.016571 
	C174.831039,168.568771 173.724411,170.238449 172.258072,171.933167 
	C173.033081,170.350159 174.167801,168.742096 175.620102,167.016571 
z"/>
<path fill="#F5DE86" opacity="1.000000" stroke="none" 
	d="
M152.112488,257.399597 
	C152.806412,259.121826 153.434250,261.239227 154.044342,263.787994 
	C153.366516,262.077820 152.706467,259.936279 152.112488,257.399597 
z"/>
<path fill="#F5DE86" opacity="1.000000" stroke="none" 
	d="
M159.145309,283.351318 
	C160.137131,284.771118 161.066406,286.548096 161.977829,288.703552 
	C161.000900,287.290894 160.041824,285.499695 159.145309,283.351318 
z"/>
<path fill="#F7C853" opacity="1.000000" stroke="none" 
	d="
M320.935547,164.639252 
	C319.710876,163.862488 318.383667,162.782745 317.061584,161.329712 
	C318.322174,162.083038 319.577576,163.209656 320.935547,164.639252 
z"/>
<path fill="#E77728" opacity="1.000000" stroke="none" 
	d="
M344.373962,272.828156 
	C344.400513,271.089722 344.756165,269.183777 345.443695,267.134888 
	C345.418060,268.881500 345.060577,270.771057 344.373962,272.828156 
z"/>
<path fill="#E77728" opacity="1.000000" stroke="none" 
	d="
M271.015869,302.331360 
	C271.852051,302.935944 272.715973,303.861572 273.433167,305.130554 
	C272.538818,304.533417 271.791199,303.592896 271.015869,302.331360 
z"/>
<path fill="#E77728" opacity="1.000000" stroke="none" 
	d="
M273.584900,305.922668 
	C274.153870,305.870789 274.847168,306.042908 275.540497,306.215027 
	C274.933685,306.794647 274.326904,307.374329 273.369659,307.958435 
	C273.249207,307.357483 273.479218,306.752106 273.584900,305.922668 
z"/>
<path fill="#F4B046" opacity="1.000000" stroke="none" 
	d="
M308.994232,205.925385 
	C308.846985,206.465424 308.699768,207.005478 308.382935,207.772217 
	C307.833008,206.571442 307.452698,205.143967 307.053406,203.349640 
	C307.034393,202.982773 307.054993,202.967209 307.308411,203.141815 
	C308.039307,204.186066 308.516785,205.055725 308.994232,205.925385 
z"/>
<path fill="#E77728" opacity="1.000000" stroke="none" 
	d="
M272.578430,308.033142 
	C271.524292,308.681366 270.101074,309.332184 268.323853,309.993347 
	C269.383057,309.347717 270.796204,308.691742 272.578430,308.033142 
z"/>
<path fill="#F4B046" opacity="1.000000" stroke="none" 
	d="
M305.113739,199.165527 
	C305.558807,198.886063 305.916992,198.961456 306.588867,199.452911 
	C306.953400,200.901733 307.004211,201.934464 307.054993,202.967209 
	C307.054993,202.967209 307.034393,202.982773 307.051819,202.971985 
	C306.388458,201.814270 305.707642,200.667328 305.113739,199.165527 
z"/>
<path fill="#F5DE86" opacity="1.000000" stroke="none" 
	d="
M215.335724,175.040726 
	C215.795486,174.384308 216.591721,173.687668 217.735886,173.010742 
	C217.279938,173.687134 216.476059,174.343826 215.335724,175.040726 
z"/>
<path fill="#F4B046" opacity="1.000000" stroke="none" 
	d="
M282.991913,173.294113 
	C283.850342,173.444168 284.836334,173.905579 285.900757,174.705978 
	C285.025940,174.565125 284.072693,174.085297 282.991913,173.294113 
z"/>
<path fill="#F5DE86" opacity="1.000000" stroke="none" 
	d="
M212.334015,177.032990 
	C212.797302,176.398621 213.590561,175.711929 214.731857,175.020020 
	C214.274597,175.670090 213.469315,176.325394 212.334015,177.032990 
z"/>
<path fill="#F5DE86" opacity="1.000000" stroke="none" 
	d="
M201.343597,188.973175 
	C201.496735,188.124222 201.968002,187.164352 202.764862,186.101425 
	C202.614212,186.953003 202.137985,187.907639 201.343597,188.973175 
z"/>
<path fill="#F5DE86" opacity="1.000000" stroke="none" 
	d="
M191.634842,153.933929 
	C191.185181,154.594193 190.401291,155.291229 189.261414,155.969681 
	C189.703812,155.290955 190.502213,154.630814 191.634842,153.933929 
z"/>
<path fill="#EC6A28" opacity="1.000000" stroke="none" 
	d="
M296.073975,334.352020 
	C296.686676,334.796082 297.316467,335.555481 297.943420,336.649597 
	C297.324127,336.211975 296.707611,335.439667 296.073975,334.352020 
z"/>
<path fill="#F7C853" opacity="1.000000" stroke="none" 
	d="
M330.015686,174.648026 
	C329.378143,174.200394 328.711609,173.422470 328.057892,172.299316 
	C328.709351,172.741959 329.348022,173.529846 330.015686,174.648026 
z"/>
<path fill="#F5DE86" opacity="1.000000" stroke="none" 
	d="
M170.617737,173.011780 
	C170.493835,173.897827 170.049347,174.881821 169.253937,175.914932 
	C169.367722,175.012619 169.832428,174.061157 170.617737,173.011780 
z"/>
<path fill="#F5DE86" opacity="1.000000" stroke="none" 
	d="
M183.675598,316.961304 
	C184.259430,316.957184 185.029465,317.197083 185.909424,317.764557 
	C185.300171,317.796539 184.580994,317.500916 183.675598,316.961304 
z"/>
<path fill="#E03E21" opacity="1.000000" stroke="none" 
	d="
M326.757904,333.698425 
	C326.124969,333.481995 325.493225,332.983978 324.961151,332.249329 
	C325.626923,332.480774 326.192993,332.948761 326.757904,333.698425 
z"/>
<path fill="#F4B046" opacity="1.000000" stroke="none" 
	d="
M295.998108,184.373047 
	C296.588196,184.500412 297.212311,184.974823 297.926697,185.753098 
	C297.355316,185.611343 296.693726,185.165726 295.998108,184.373047 
z"/>
<path fill="#F1A928" opacity="1.000000" stroke="none" 
	d="
M276.043701,169.325439 
	C276.573730,169.445648 277.204712,169.842300 277.921417,170.524826 
	C277.386322,170.407776 276.765503,170.004837 276.043701,169.325439 
z"/>
<path fill="#F5DE86" opacity="1.000000" stroke="none" 
	d="
M182.035950,315.322906 
	C182.464676,315.295258 182.995255,315.566650 183.656876,316.121490 
	C183.237869,316.143951 182.687836,315.882965 182.035950,315.322906 
z"/>
<path fill="#EC6A28" opacity="1.000000" stroke="none" 
	d="
M299.007477,338.343018 
	C299.298859,338.506897 299.614410,338.981812 299.960297,339.750305 
	C299.670959,339.580597 299.351318,339.117340 299.007477,338.343018 
z"/>
<path fill="#F4B046" opacity="1.000000" stroke="none" 
	d="
M279.038025,171.297195 
	C279.478027,171.194229 280.051605,171.382141 280.808868,171.816116 
	C280.385590,171.904144 279.778595,171.746109 279.038025,171.297195 
z"/>
<path fill="#F4B046" opacity="1.000000" stroke="none" 
	d="
M304.034058,196.297302 
	C304.296448,196.473572 304.605255,196.961777 304.971008,197.740387 
	C304.712158,197.556961 304.396301,197.083084 304.034058,196.297302 
z"/>
<path fill="#F5DE86" opacity="1.000000" stroke="none" 
	d="
M308.838501,154.739151 
	C308.327911,154.832092 307.822998,154.594559 307.148529,154.128540 
	C307.600708,154.069611 308.222443,154.239136 308.838501,154.739151 
z"/>
<path fill="#F4B046" opacity="1.000000" stroke="none" 
	d="
M303.225342,195.277191 
	C303.462067,195.223495 303.635468,195.435593 303.898193,195.839554 
	C303.649231,195.997009 303.374084,195.834198 303.225342,195.277191 
z"/>
<path fill="#F5DE86" opacity="1.000000" stroke="none" 
	d="
M180.995911,314.268372 
	C181.213486,314.193787 181.497742,314.389099 181.888260,314.825073 
	C181.683884,314.889923 181.373260,314.714111 180.995911,314.268372 
z"/>
<path fill="#F7C853" opacity="1.000000" stroke="none" 
	d="
M326.985596,170.708679 
	C326.750702,170.821945 326.498199,170.620712 326.160614,170.156616 
	C326.328125,170.116928 326.625610,170.283737 326.985596,170.708679 
z"/>
<path fill="#F7C853" opacity="1.000000" stroke="none" 
	d="
M327.988281,171.710236 
	C327.753082,171.824768 327.500336,171.623489 327.162903,171.157990 
	C327.329590,171.118561 327.627136,171.285431 327.988281,171.710236 
z"/>
<path fill="#F4B046" opacity="1.000000" stroke="none" 
	d="
M295.024902,183.269531 
	C295.274628,183.134659 295.537476,183.331390 295.866241,183.819183 
	C295.689331,183.866791 295.391266,183.697083 295.024902,183.269531 
z"/>
<path fill="#F4B046" opacity="1.000000" stroke="none" 
	d="
M294.029877,182.269760 
	C294.267151,182.151764 294.525208,182.353745 294.862183,182.831024 
	C294.693848,182.870804 294.397034,182.698608 294.029877,182.269760 
z"/>
<path fill="#F5DE86" opacity="1.000000" stroke="none" 
	d="
M171.714661,171.975418 
	C171.792938,172.197769 171.599106,172.486465 171.160568,172.878647 
	C171.091431,172.668671 171.266983,172.355225 171.714661,171.975418 
z"/>
<path fill="#F5DE86" opacity="1.000000" stroke="none" 
	d="
M210.271271,179.005737 
	C210.191879,178.781097 210.383911,178.487534 210.826477,178.095810 
	C210.898895,178.310699 210.720795,178.623749 210.271271,179.005737 
z"/>
<path fill="#F7C853" opacity="1.000000" stroke="none" 
	d="
M325.981049,169.715057 
	C325.756378,169.817810 325.505371,169.613647 325.161682,169.154236 
	C325.322418,169.120087 325.617645,169.289810 325.981049,169.715057 
z"/>
<path fill="#F4B046" opacity="1.000000" stroke="none" 
	d="
M281.016968,172.318390 
	C281.241333,172.170059 281.543701,172.311035 282.011841,172.645584 
	C281.816711,172.762009 281.455872,172.684845 281.016968,172.318390 
z"/>
<path fill="#E03E21" opacity="1.000000" stroke="none" 
	d="
M327.897278,335.690918 
	C327.684204,335.801331 327.452332,335.625122 327.156067,335.197510 
	C327.382782,335.030579 327.645081,335.183350 327.897278,335.690918 
z"/>
<path fill="#E03E21" opacity="1.000000" stroke="none" 
	d="
M328.921509,336.669098 
	C328.704620,336.787598 328.479706,336.620911 328.194092,336.210815 
	C328.429901,336.014313 328.689941,336.153168 328.921509,336.669098 
z"/>
<path fill="#EC6A28" opacity="1.000000" stroke="none" 
	d="
M298.052277,337.294739 
	C298.168213,337.033905 298.337769,337.021759 298.762695,337.024841 
	C299.018005,337.040009 299.004303,337.529297 298.983826,337.772949 
	C298.677551,337.858887 298.391724,337.701172 298.052277,337.294739 
z"/>
<path fill="#F5DE86" opacity="1.000000" stroke="none" 
	d="
M211.268158,178.003738 
	C211.194901,177.786713 211.392868,177.496796 211.837311,177.098785 
	C211.902313,177.304077 211.720840,177.617462 211.268158,178.003738 
z"/>
<path fill="#E03E21" opacity="1.000000" stroke="none" 
	d="
M307.057892,348.372192 
	C307.286957,348.237946 307.507141,348.397675 307.777802,348.808838 
	C307.538391,349.018738 307.278656,348.887390 307.057892,348.372192 
z"/>
<path fill="#E03E21" opacity="1.000000" stroke="none" 
	d="
M308.066895,349.346863 
	C308.282257,349.224762 308.497742,349.379639 308.763062,349.769073 
	C308.523285,349.981995 308.274689,349.855377 308.066895,349.346863 
z"/>
<path fill="#E03E21" opacity="1.000000" stroke="none" 
	d="
M311.060120,352.346405 
	C311.291779,352.218628 311.509552,352.384125 311.775421,352.799408 
	C311.530212,353.006836 311.271118,352.870331 311.060120,352.346405 
z"/>
<path fill="#F7C853" opacity="1.000000" stroke="none" 
	d="
M324.982239,168.714828 
	C324.755096,168.819458 324.503601,168.615021 324.160706,168.153320 
	C324.322815,168.118439 324.619019,168.288345 324.982239,168.714828 
z"/>
<path fill="#F4B046" opacity="1.000000" stroke="none" 
	d="
M286.024597,175.263855 
	C286.267914,175.139938 286.529510,175.341766 286.860504,175.830460 
	C286.687439,175.872437 286.391754,175.696533 286.024597,175.263855 
z"/>
<path fill="#F5DE86" opacity="1.000000" stroke="none" 
	d="
M176.713684,165.949707 
	C176.790039,166.165237 176.590225,166.457031 176.150574,166.869919 
	C176.086334,166.669312 176.261932,166.347626 176.713684,165.949707 
z"/>
<path fill="#F5DE86" opacity="1.000000" stroke="none" 
	d="
M203.257050,186.011795 
	C203.189484,185.801224 203.393768,185.513840 203.838287,185.109039 
	C203.895309,185.306107 203.712097,185.620544 203.257050,186.011795 
z"/>
<path fill="#F4B046" opacity="1.000000" stroke="none" 
	d="
M336.986328,185.702271 
	C336.753510,185.816681 336.502106,185.618896 336.168579,185.157944 
	C336.334808,185.117615 336.628540,185.282730 336.986328,185.702271 
z"/>
<path fill="#F7C853" opacity="1.000000" stroke="none" 
	d="
M321.975342,165.720322 
	C321.762238,165.811020 321.513611,165.604080 321.163940,165.151154 
	C321.317535,165.122955 321.609833,165.295471 321.975342,165.720322 
z"/>
<path fill="#E77728" opacity="1.000000" stroke="none" 
	d="
M343.842896,273.746826 
	C343.521301,273.712036 343.509796,273.451263 343.863098,273.119110 
	C343.994720,273.046844 343.919800,273.519989 343.842896,273.746826 
z"/>
<path fill="#F7C853" opacity="1.000000" stroke="none" 
	d="
M316.986053,160.696594 
	C316.765442,160.859528 316.504913,160.712326 316.126740,160.344086 
	C316.294281,160.258896 316.606628,160.346710 316.986053,160.696594 
z"/>
<path fill="#F7C853" opacity="1.000000" stroke="none" 
	d="
M323.983582,167.715118 
	C323.756226,167.819153 323.504120,167.613480 323.160065,167.149872 
	C323.322205,167.115555 323.619110,167.286713 323.983582,167.715118 
z"/>
<path fill="#F19028" opacity="1.000000" stroke="none" 
	d="
M213.865356,300.720886 
	C213.586090,300.816315 213.391525,300.613068 213.157471,300.168396 
	C213.345154,300.140137 213.622498,300.305237 213.865356,300.720886 
z"/>
<path fill="#F4B046" opacity="1.000000" stroke="none" 
	d="
M337.898560,186.716354 
	C337.585480,186.833786 337.379089,186.625290 337.144836,186.150940 
	C337.350769,186.115219 337.646851,186.283661 337.898560,186.716354 
z"/>
<path fill="#F5DE86" opacity="1.000000" stroke="none" 
	d="
M180.001251,313.263672 
	C180.206436,313.198242 180.486374,313.400391 180.885773,313.836121 
	C180.695465,313.890228 180.385727,313.710724 180.001251,313.263672 
z"/>
<path fill="#F4B046" opacity="1.000000" stroke="none" 
	d="
M298.121155,187.115845 
	C298.473328,187.005417 298.691345,187.249420 298.905579,187.794800 
	C298.668060,187.823929 298.363129,187.615295 298.121155,187.115845 
z"/>
<path fill="#F5DE86" opacity="1.000000" stroke="none" 
	d="
M174.987503,308.273560 
	C175.206253,308.197174 175.496521,308.390930 175.891739,308.829651 
	C175.684128,308.897644 175.371582,308.720703 174.987503,308.273560 
z"/>
<path fill="#F5DE86" opacity="1.000000" stroke="none" 
	d="
M175.993149,309.274841 
	C176.213455,309.198944 176.501755,309.393799 176.893494,309.833862 
	C176.684982,309.901245 176.373062,309.723419 175.993149,309.274841 
z"/>
<path fill="#F5DE86" opacity="1.000000" stroke="none" 
	d="
M176.993073,310.270142 
	C177.204803,310.200806 177.486160,310.401947 177.882843,310.839569 
	C177.686371,310.897552 177.374542,310.719055 176.993073,310.270142 
z"/>
<path fill="#E77728" opacity="1.000000" stroke="none" 
	d="
M234.984390,310.719482 
	C234.776642,310.881195 234.523224,310.738281 234.160431,310.366821 
	C234.311600,310.293152 234.607483,310.385345 234.984390,310.719482 
z"/>
<path fill="#F5DE86" opacity="1.000000" stroke="none" 
	d="
M204.267365,185.009796 
	C204.190033,184.788116 204.384552,184.495590 204.826904,184.100159 
	C204.896210,184.311142 204.717712,184.625046 204.267365,185.009796 
z"/>
<path fill="#F5DE86" opacity="1.000000" stroke="none" 
	d="
M177.986694,311.278595 
	C178.210098,311.199310 178.499954,311.392242 178.892303,311.831238 
	C178.680908,311.901794 178.367020,311.726318 177.986694,311.278595 
z"/>
<path fill="#F5DE86" opacity="1.000000" stroke="none" 
	d="
M179.000229,312.267761 
	C179.203262,312.204132 179.479782,312.409027 179.881622,312.842957 
	C179.695877,312.893433 179.384811,312.714874 179.000229,312.267761 
z"/>
<path fill="#F7C853" opacity="1.000000" stroke="none" 
	d="
M322.990143,166.713654 
	C322.758667,166.823395 322.505280,166.620544 322.162720,166.157410 
	C322.328461,166.119186 322.626709,166.287170 322.990143,166.713654 
z"/>
<path fill="#F9E146" opacity="1.000000" stroke="none" 
	d="
M228.994919,142.358917 
	C237.021210,141.304520 245.043655,140.627884 253.535034,139.960999 
	C254.241638,145.341446 249.366989,146.748856 246.452484,149.665131 
	C245.800674,150.317322 244.953583,150.774384 244.103790,151.644501 
	C243.843384,151.980667 243.675598,151.993607 243.067505,151.835297 
	C242.089203,152.094345 241.551208,152.524643 241.013214,152.954956 
	C239.130905,153.758514 237.248611,154.562057 235.168152,155.642212 
	C224.089508,157.966980 215.238083,164.151718 206.425095,170.251602 
	C202.510788,172.960892 199.178818,176.511520 195.291733,179.841873 
	C195.967606,174.880997 198.575073,171.087784 203.174469,168.328949 
	C213.166077,162.335693 221.437408,154.348236 228.500458,145.113876 
	C228.943192,144.535034 228.840164,143.538757 228.994919,142.358917 
z"/>
<path fill="#F9DC4D" opacity="1.000000" stroke="none" 
	d="
M171.997070,222.597061 
	C171.318863,226.057144 170.642609,229.116714 169.944000,232.584412 
	C164.881027,236.704880 159.840424,240.417236 153.983704,244.730637 
	C153.983704,236.812958 153.983704,229.355469 153.989731,221.455765 
	C159.483871,219.416824 163.631485,216.308914 167.240295,211.678787 
	C169.572342,208.686798 173.827484,207.193680 177.581970,205.011749 
	C175.961746,210.728607 173.980377,216.462585 171.997070,222.597061 
z"/>
<path fill="#EF581C" opacity="1.000000" stroke="none" 
	d="
M294.707001,299.160583 
	C297.724152,300.976074 300.447113,302.963104 303.494385,305.055359 
	C304.223785,311.175842 298.709961,312.984894 295.666840,316.528870 
	C294.413025,317.989075 292.790558,319.132721 291.171021,320.712616 
	C281.484436,326.484863 272.603607,333.317688 261.284851,335.011261 
	C260.556976,335.120148 259.912842,335.788391 259.090057,336.518646 
	C257.255890,336.870148 255.561447,336.899445 253.444611,336.894684 
	C253.945892,331.085754 257.067017,327.102325 262.492554,324.794952 
	C263.740753,324.264099 265.281433,323.163544 265.638062,322.002747 
	C267.601105,315.612732 273.107483,313.140778 278.084564,309.948975 
	C280.329987,308.508972 282.127991,306.387939 284.299744,304.811066 
	C285.976593,303.593536 287.908997,302.722992 289.747345,301.734589 
	C291.287781,300.906433 292.856567,300.130981 294.707001,299.160583 
z"/>
<path fill="#F0701F" opacity="1.000000" stroke="none" 
	d="
M238.931732,312.401062 
	C243.690659,312.377014 248.377762,312.697418 253.523132,313.024139 
	C253.189346,315.234406 252.397293,317.438324 250.997589,319.894409 
	C249.929550,320.760223 249.469147,321.373871 249.008713,321.987518 
	C245.346634,326.396606 241.684570,330.805695 237.999054,335.575775 
	C237.239563,335.942871 236.503510,335.949005 235.295288,335.637695 
	C233.543549,335.207184 232.263962,335.094116 230.984390,334.981018 
	C230.551529,334.965363 230.118652,334.949707 229.255615,334.611877 
	C227.548126,334.182037 226.270813,334.074402 224.993515,333.966736 
	C224.826828,333.966522 224.660141,333.966339 224.243317,333.960175 
	C221.501068,329.165833 222.586945,324.450897 233.449326,320.038208 
	C232.439346,319.346008 231.588547,318.762909 230.598389,318.084259 
	C233.440384,316.247711 236.150146,314.496582 238.931732,312.401062 
z"/>
<path fill="#EC6A28" opacity="1.000000" stroke="none" 
	d="
M249.308548,321.919464 
	C249.469147,321.373871 249.929550,320.760223 250.688995,320.077332 
	C250.528137,320.622498 250.068253,321.236938 249.308548,321.919464 
z"/>
<path fill="#EC6A28" opacity="1.000000" stroke="none" 
	d="
M243.715515,336.706787 
	C243.129562,336.760529 242.304428,336.607849 241.243423,336.237732 
	C241.830490,336.180359 242.653412,336.340393 243.715515,336.706787 
z"/>
<path fill="#EC6A28" opacity="1.000000" stroke="none" 
	d="
M264.181641,311.863525 
	C264.141846,311.708649 264.342316,311.498718 264.793213,311.252258 
	C264.819122,311.399811 264.611877,311.597382 264.181641,311.863525 
z"/>
<path fill="#F07B23" opacity="1.000000" stroke="none" 
	d="
M345.982788,248.002045 
	C345.631897,253.361801 345.281006,258.721558 344.890259,264.519470 
	C344.252747,265.217377 343.191559,265.392487 343.126404,265.749481 
	C342.018616,271.817139 335.848602,273.210571 332.550232,277.252289 
	C330.461090,279.812195 327.580566,280.224487 324.362427,278.050781 
	C325.020782,273.943085 326.015533,269.897827 327.012390,265.436188 
	C328.180389,261.533478 329.346283,258.047119 331.117432,254.337708 
	C334.397919,255.177841 336.531464,255.037933 338.795319,252.660431 
	C340.710114,250.649597 343.551483,249.521042 345.982788,248.002045 
z"/>
<path fill="#F08626" opacity="1.000000" stroke="none" 
	d="
M307.308411,203.141815 
	C307.004211,201.934464 306.953400,200.901733 306.861145,199.486374 
	C309.729767,191.752792 314.764648,186.671890 322.743469,184.217407 
	C323.011475,183.984924 323.477448,184.016891 323.709869,184.032684 
	C325.924896,191.443222 327.907501,198.837967 329.600708,206.553116 
	C325.916565,204.203583 323.388672,205.489014 321.017883,208.494934 
	C318.454224,211.745377 315.686188,214.834610 313.007294,217.994156 
	C311.825989,214.170975 310.644653,210.347809 309.228760,206.225006 
	C308.516785,205.055725 308.039307,204.186066 307.308411,203.141815 
z"/>
<path fill="#F9DC4D" opacity="1.000000" stroke="none" 
	d="
M241.296448,152.921936 
	C241.551208,152.524643 242.089203,152.094345 242.815125,151.840546 
	C242.528595,152.307678 242.054138,152.598312 241.296448,152.921936 
z"/>
<path fill="#F08626" opacity="1.000000" stroke="none" 
	d="
M345.992676,247.574860 
	C343.551483,249.521042 340.710114,250.649597 338.795319,252.660431 
	C336.531464,255.037933 334.397919,255.177841 331.349670,254.051239 
	C331.261108,250.929749 331.545532,247.871704 331.910889,243.944305 
	C331.986389,237.055862 331.980957,231.036774 331.985168,224.761322 
	C332.000183,224.334030 332.005554,224.163101 332.010895,223.992157 
	C334.805603,224.510529 337.382263,225.056427 339.428192,221.916672 
	C340.199585,220.732864 342.604584,220.613586 344.657898,220.007263 
	C345.368134,229.052887 345.685364,238.100296 345.992676,247.574860 
z"/>
<path fill="#F0701F" opacity="1.000000" stroke="none" 
	d="
M331.975525,225.017670 
	C331.980957,231.036774 331.986389,237.055862 331.979370,243.544601 
	C330.449219,243.095764 328.931488,242.177277 328.362823,241.833130 
	C323.463074,244.401093 319.113159,246.680878 314.383453,248.970261 
	C314.013763,244.961548 314.023865,240.943237 314.361694,236.376999 
	C317.167206,233.012024 319.763458,230.288940 322.092041,227.353546 
	C324.840820,223.888367 327.787170,222.030304 331.975525,225.017670 
z"/>
<path fill="#F07B23" opacity="1.000000" stroke="none" 
	d="
M331.985168,224.761322 
	C327.787170,222.030304 324.840820,223.888367 322.092041,227.353546 
	C319.763458,230.288940 317.167206,233.012024 314.370117,235.913879 
	C313.701904,230.293533 313.352966,224.588394 313.005676,218.438690 
	C315.686188,214.834610 318.454224,211.745377 321.017883,208.494934 
	C323.388672,205.489014 325.916565,204.203583 329.658508,206.936340 
	C330.013336,207.435562 330.021027,207.871933 330.034485,208.634933 
	C330.695038,213.681015 331.349884,218.400467 332.007812,223.556046 
	C332.005554,224.163101 332.000183,224.334030 331.985168,224.761322 
z"/>
<path fill="#EC6A28" opacity="1.000000" stroke="none" 
	d="
M231.253906,335.213989 
	C232.263962,335.094116 233.543549,335.207184 234.926910,335.628113 
	C233.861618,335.772980 232.692520,335.609985 231.253906,335.213989 
z"/>
<path fill="#EC6A28" opacity="1.000000" stroke="none" 
	d="
M225.335678,334.027557 
	C226.270813,334.074402 227.548126,334.182037 228.931244,334.593445 
	C227.917328,334.627625 226.797592,334.358002 225.335678,334.027557 
z"/>
</svg>